<!DOCTYPE svg PUBLIC "-//W3C//DTD SVG 1.1//EN" "http://www.w3.org/Graphics/SVG/1.1/DTD/svg11.dtd">

<!-- Uploaded to: SVG Repo, www.svgrepo.com, Transformed by: SVG Repo Mixer Tools -->
<svg fill="#e11d48" height="24px" width="24px" version="1.1" id="Capa_1" xmlns="http://www.w3.org/2000/svg" xmlns:xlink="http://www.w3.org/1999/xlink" viewBox="-28 -28 336.00 336.00" xml:space="preserve" transform="matrix(1, 0, 0, -1, 0, 0)rotate(0)">

<g id="SVGRepo_bgCarrier" stroke-width="0"/>

<g id="SVGRepo_tracerCarrier" stroke-linecap="round" stroke-linejoin="round" stroke="#CCCCCC" stroke-width="56"> <path d="M275.456,0H4.544C2.034,0,0,2.035,0,4.544v270.911C0,277.965,2.034,280,4.544,280h270.911c2.509,0,4.544-2.035,4.544-4.544 V4.544C280,2.035,277.965,0,275.456,0z M212.529,191.316l-21.213,21.213L140,161.213l-51.316,51.316l-21.213-21.213L118.787,140 L67.471,88.684l21.213-21.213L140,118.787l51.316-51.316l21.213,21.213L161.213,140L212.529,191.316z"/> </g>

<g id="SVGRepo_iconCarrier"> <path d="M275.456,0H4.544C2.034,0,0,2.035,0,4.544v270.911C0,277.965,2.034,280,4.544,280h270.911c2.509,0,4.544-2.035,4.544-4.544 V4.544C280,2.035,277.965,0,275.456,0z M212.529,191.316l-21.213,21.213L140,161.213l-51.316,51.316l-21.213-21.213L118.787,140 L67.471,88.684l21.213-21.213L140,118.787l51.316-51.316l21.213,21.213L161.213,140L212.529,191.316z"/> </g>

</svg>